{
  "accessors": [
    {
      "bufferView": 2,
      "componentType": 5126,
      "count": 11474,
      "max": [
        99.97806549072266,
        99.95613861083984,
        100.0
      ],
      "min": [
        -99.97806549072266,
        -99.95613861083984,
        -100.0
      ],
      "type": "VEC3"
    },
    {
      "bufferView": 2,
      "byteOffset": 137688,
      "componentType": 5126,
      "count": 11474,
      "max": [
        0.9997259974479675,
        0.999955415725708,
        0.9997806549072266
      ],
      "min": [
        -0.9999006986618042,
        -0.999955415725708,
        -0.9997806549072266
      ],
      "type": "VEC3"
    },
    {
      "bufferView": 3,
      "componentType": 5126,
      "count": 11474,
      "max": [
        1.0,
        0.9997807741165161,
        0.0064263371750712395,
        1.0
      ],
      "min": [
        -1.0,
        -0.9999967217445374,
        -0.006654226686805487,
        1.0
      ],
      "type": "VEC4"
    },
    {
      "bufferView": 1,
      "componentType": 5126,
      "count": 11474,
      "max": [
        1.0,
        1.0
      ],
      "min": [
        0.0,
        0.0
      ],
      "type": "VEC2"
    },
    {
      "bufferView": 0,
      "componentType": 5125,
      "count": 66600,
      "type": "SCALAR"
    },
    {
      "bufferView": 2,
      "byteOffset": 275376,
      "componentType": 5126,
      "count": 11474,
      "max": [
        100.47795867919922,
        100.45592498779297,
        100.5
      ],
      "min": [
        -100.47795867919922,
        -100.45592498779297,
        -100.5
      ],
      "type": "VEC3"
    },
    {
      "bufferView": 2,
      "byteOffset": 413064,
      "componentType": 5126,
      "count": 11474,
      "max": [
        0.9997259974479675,
        0.999955415725708,
        0.9997806549072266
      ],
      "min": [
        -0.9999006986618042,
        -0.999955415725708,
        -0.9997806549072266
      ],
      "type": "VEC3"
    },
    {
      "bufferView": 1,
      "byteOffset": 91792,
      "componentType": 5126,
      "count": 11474,
      "max": [
        1.0,
        1.0
      ],
      "min": [
        0.0,
        0.0
      ],
      "type": "VEC2"
    },
    {
      "bufferView": 0,
      "byteOffset": 266400,
      "componentType": 5125,
      "count": 66600,
      "type": "SCALAR"
    }
  ],
  "asset": {
    "extras": {
      "author": "uperesito (https://sketchfab.com/uperesito)",
      "license": "CC-BY-4.0 (http://creativecommons.org/licenses/by/4.0/)",
      "source": "https://sketchfab.com/3d-models/tierra-v11-0b460c8d3b524c049db5414f98e5819d",
      "title": "Tierra v1.1"
    },
    "generator": "Sketchfab-12.68.0",
    "version": "2.0"
  },
  "bufferViews": [
    {
      "buffer": 0,
      "byteLength": 532800,
      "name": "floatBufferViews",
      "target": 34963
    },
    {
      "buffer": 0,
      "byteLength": 183584,
      "byteOffset": 532800,
      "byteStride": 8,
      "name": "floatBufferViews",
      "target": 34962
    },
    {
      "buffer": 0,
      "byteLength": 550752,
      "byteOffset": 716384,
      "byteStride": 12,
      "name": "floatBufferViews",
      "target": 34962
    },
    {
      "buffer": 0,
      "byteLength": 183584,
      "byteOffset": 1267136,
      "byteStride": 16,
      "name": "floatBufferViews",
      "target": 34962
    }
  ],
  "buffers": [
    {
      "byteLength": 1450720,
      "uri": "scene.bin"
    }
  ],
  "images": [
    {
      "uri": "textures/Tierra_baseColor.jpeg"
    },
    {
      "uri": "textures/Tierra_emissive.jpeg"
    },
    {
      "uri": "textures/Tierra_normal.png"
    },
    {
      "uri": "textures/Nubes_baseColor.png"
    }
  ],
  "materials": [
    {
      "doubleSided": true,
      "emissiveFactor": [
        0.2,
        0.2,
        0.2
      ],
      "emissiveTexture": {
        "index": 1
      },
      "name": "Tierra",
      "normalTexture": {
        "index": 2
      },
      "pbrMetallicRoughness": {
        "baseColorTexture": {
          "index": 0
        },
        "metallicFactor": 0.0,
        "roughnessFactor": 0.6
      }
    },
    {
      "alphaMode": "BLEND",
      "doubleSided": true,
      "name": "Nubes",
      "pbrMetallicRoughness": {
        "baseColorTexture": {
          "index": 3
        },
        "metallicFactor": 0.0,
        "roughnessFactor": 0.6
      }
    }
  ],
  "meshes": [
    {
      "name": "Object_0",
      "primitives": [
        {
          "attributes": {
            "NORMAL": 1,
            "POSITION": 0,
            "TANGENT": 2,
            "TEXCOORD_0": 3
          },
          "indices": 4,
          "material": 0,
          "mode": 4
        }
      ]
    },
    {
      "name": "Object_1",
      "primitives": [
        {
          "attributes": {
            "NORMAL": 6,
            "POSITION": 5,
            "TEXCOORD_0": 7
          },
          "indices": 8,
          "material": 1,
          "mode": 4
        }
      ]
    }
  ],
  "nodes": [
    {
      "children": [
        1
      ],
      "matrix": [
        0.001221111393533647,
        0.0,
        0.0,
        0.0,
        0.0,
        2.711411969466331e-19,
        -0.001221111393533647,
        0.0,
        0.0,
        0.001221111393533647,
        2.711411969466331e-19,
        0.0,
        0.0,
        0.0,
        0.0,
        1.0
      ],
      "name": "Sketchfab_model"
    },
    {
      "children": [
        2,
        3
      ],
      "name": "tierra.3ds"
    },
    {
      "mesh": 0,
      "name": "Object_2"
    },
    {
      "mesh": 1,
      "name": "Object_3"
    }
  ],
  "samplers": [
    {
      "magFilter": 9729,
      "minFilter": 9987,
      "wrapS": 10497,
      "wrapT": 10497
    }
  ],
  "scene": 0,
  "scenes": [
    {
      "name": "Sketchfab_Scene",
      "nodes": [
        0
      ]
    }
  ],
  "textures": [
    {
      "sampler": 0,
      "source": 0
    },
    {
      "sampler": 0,
      "source": 1
    },
    {
      "sampler": 0,
      "source": 2
    },
    {
      "sampler": 0,
      "source": 3
    }
  ]
}
